<svg xmlns="http://www.w3.org/2000/svg" xmlns:xlink="http://www.w3.org/1999/xlink" width="40" zoomAndPan="magnify" viewBox="0 0 30 30.000001" height="40" preserveAspectRatio="xMidYMid meet" version="1.0"><defs><clipPath id="id1"><path d="M 0.484375 0.660156 L 29.515625 0.660156 L 29.515625 28.242188 L 0.484375 28.242188 Z M 0.484375 0.660156 " clip-rule="nonzero"/></clipPath></defs><g clip-path="url(#id1)"><path fill="#000000" d="M 28.632812 0.667969 C 28.585938 0.667969 28.539062 0.671875 28.496094 0.679688 L 24.066406 1.433594 C 23.78125 1.480469 23.546875 1.671875 23.441406 1.9375 C 23.441406 1.9375 23.441406 1.941406 23.441406 1.941406 L 21.386719 7.1875 L 1.324219 7.6875 C 1.09375 7.691406 0.878906 7.796875 0.730469 7.96875 C 0.578125 8.140625 0.507812 8.371094 0.535156 8.601562 L 1.640625 17.71875 C 1.6875 18.101562 2.003906 18.40625 2.390625 18.433594 L 16.691406 19.566406 L 19.527344 21.785156 C 19.53125 21.789062 19.535156 21.792969 19.539062 21.792969 C 19.539062 21.796875 19.542969 21.796875 19.546875 21.800781 C 19.550781 21.800781 19.554688 21.804688 19.558594 21.808594 C 20.074219 22.191406 20.203125 22.714844 20.128906 23.003906 C 20.089844 23.171875 20.023438 23.292969 19.875 23.386719 C 19.722656 23.480469 19.460938 23.550781 19.015625 23.523438 C 19.011719 23.523438 19.011719 23.523438 19.007812 23.523438 C 18.996094 23.523438 18.980469 23.523438 18.964844 23.523438 L 18.957031 23.523438 L 1.898438 23.574219 C 1.449219 23.570312 1.070312 23.945312 1.074219 24.390625 C 1.074219 24.835938 1.453125 25.210938 1.902344 25.203125 L 1.90625 25.203125 L 3.152344 25.199219 C 2.6875 25.496094 2.378906 26.007812 2.378906 26.59375 C 2.378906 27.5 3.125 28.246094 4.039062 28.246094 C 4.949219 28.246094 5.699219 27.5 5.699219 26.59375 C 5.699219 26.007812 5.386719 25.488281 4.917969 25.195312 L 18.964844 25.152344 C 18.460938 25.4375 18.113281 25.976562 18.113281 26.59375 C 18.113281 27.5 18.859375 28.246094 19.773438 28.246094 C 20.6875 28.246094 21.433594 27.5 21.433594 26.59375 C 21.433594 25.804688 20.871094 25.140625 20.125 24.976562 C 20.832031 24.730469 21.371094 24.21875 21.707031 23.433594 C 21.710938 23.425781 21.714844 23.414062 21.71875 23.40625 C 21.976562 22.378906 21.519531 21.265625 20.582031 20.542969 C 20.578125 20.539062 20.574219 20.539062 20.574219 20.535156 C 20.570312 20.535156 20.570312 20.53125 20.566406 20.527344 C 20.558594 20.519531 20.550781 20.507812 20.539062 20.5 L 18.53125 18.933594 L 24.796875 2.960938 L 28.769531 2.285156 L 28.773438 2.285156 C 29.191406 2.21875 29.496094 1.832031 29.460938 1.414062 C 29.421875 0.992188 29.054688 0.660156 28.632812 0.667969 Z M 20.78125 8.445312 L 19.628906 11.394531 L 18.121094 11.394531 L 18.121094 8.511719 Z M 17.546875 8.527344 L 17.546875 11.394531 L 14.765625 11.394531 L 14.765625 8.597656 Z M 14.191406 8.609375 L 14.191406 11.394531 L 11.414062 11.394531 L 11.414062 8.679688 Z M 10.835938 8.695312 L 10.835938 11.394531 L 8.058594 11.394531 L 8.058594 8.761719 Z M 7.484375 8.777344 L 7.484375 11.394531 L 4.703125 11.394531 L 4.703125 8.847656 Z M 4.128906 8.859375 L 4.128906 11.394531 L 2.089844 11.394531 L 1.789062 8.917969 Z M 2.160156 11.964844 L 4.128906 11.964844 L 4.128906 14.554688 L 2.472656 14.554688 Z M 4.703125 11.964844 L 7.484375 11.964844 L 7.484375 14.554688 L 4.703125 14.554688 Z M 8.058594 11.964844 L 10.835938 11.964844 L 10.835938 14.554688 L 8.058594 14.554688 Z M 11.414062 11.964844 L 14.191406 11.964844 L 14.191406 14.554688 L 11.414062 14.554688 Z M 14.765625 11.964844 L 17.546875 11.964844 L 17.546875 14.554688 L 14.765625 14.554688 Z M 18.121094 11.964844 L 19.40625 11.964844 L 18.390625 14.554688 L 18.121094 14.554688 Z M 2.542969 15.121094 L 4.128906 15.121094 L 4.128906 16.980469 L 2.753906 16.871094 Z M 4.703125 15.121094 L 7.484375 15.121094 L 7.484375 17.246094 L 4.703125 17.027344 Z M 8.058594 15.121094 L 10.839844 15.121094 L 10.839844 17.511719 L 8.058594 17.292969 Z M 11.414062 15.121094 L 14.191406 15.121094 L 14.191406 17.777344 L 11.414062 17.558594 Z M 14.765625 15.121094 L 17.546875 15.121094 L 17.546875 16.699219 L 17.019531 18.042969 C 16.953125 18.011719 16.875 17.992188 16.800781 17.984375 L 14.765625 17.824219 Z M 18.121094 15.121094 L 18.164062 15.121094 L 18.121094 15.238281 Z M 4.039062 25.621094 C 4.582031 25.621094 5.015625 26.054688 5.015625 26.59375 C 5.015625 27.132812 4.582031 27.5625 4.039062 27.5625 C 3.496094 27.5625 3.0625 27.132812 3.0625 26.59375 C 3.0625 26.054688 3.496094 25.621094 4.039062 25.621094 Z M 19.773438 25.621094 C 20.316406 25.621094 20.75 26.054688 20.75 26.59375 C 20.75 27.132812 20.316406 27.5625 19.773438 27.5625 C 19.230469 27.5625 18.800781 27.132812 18.800781 26.59375 C 18.800781 26.054688 19.230469 25.621094 19.773438 25.621094 Z M 4.039062 26.082031 C 3.746094 26.082031 3.507812 26.316406 3.507812 26.609375 C 3.507812 26.902344 3.746094 27.136719 4.039062 27.136719 C 4.335938 27.136719 4.570312 26.902344 4.570312 26.609375 C 4.570312 26.316406 4.335938 26.082031 4.039062 26.082031 Z M 19.773438 26.082031 C 19.480469 26.082031 19.246094 26.316406 19.246094 26.609375 C 19.246094 26.902344 19.480469 27.136719 19.773438 27.136719 C 20.070312 27.136719 20.304688 26.902344 20.304688 26.609375 C 20.304688 26.316406 20.070312 26.082031 19.773438 26.082031 Z M 19.773438 26.082031 " fill-opacity="1" fill-rule="nonzero"/></g></svg>