<svg xmlns="http://www.w3.org/2000/svg" xmlns:xlink="http://www.w3.org/1999/xlink" width="539" zoomAndPan="magnify" viewBox="0 0 404.25 404.24999" height="539" preserveAspectRatio="xMidYMid meet" version="1.0"><defs><g/><clipPath id="id1"><path d="M 41 10.5 L 361 10.5 L 361 325 L 41 325 Z M 41 10.5 " clip-rule="nonzero"/></clipPath><clipPath id="id2"><path d="M 150 175 L 253 175 L 253 267.636719 L 150 267.636719 Z M 150 175 " clip-rule="nonzero"/></clipPath></defs><g clip-path="url(#id1)"><path fill="#d29e45" d="M 207.050781 85.160156 C 227.917969 97.234375 247.828125 110.164062 266.773438 123.949219 C 285.632812 137.664062 303.75 152.40625 321.128906 168.179688 L 326.339844 172.910156 L 324.890625 179.714844 C 319.882812 203.253906 313.742188 226.21875 306.476562 248.613281 C 299.242188 270.910156 290.84375 292.714844 281.285156 314.023438 L 278.410156 320.433594 L 271.433594 321.171875 L 271.382812 321.171875 C 264.296875 321.914062 257.625 322.523438 251.371094 322.992188 C 245.234375 323.457031 238.574219 323.855469 231.40625 324.191406 C 197.289062 325.777344 163.625 324.769531 130.429688 321.171875 L 123.484375 320.414062 L 120.625 313.96875 C 110.769531 291.777344 102.246094 269.605469 95.058594 247.449219 C 87.808594 225.097656 81.792969 202.503906 77.023438 179.667969 L 75.578125 172.757812 L 80.832031 168.085938 L 80.835938 168.078125 L 80.839844 168.082031 C 85.683594 163.71875 90.726562 159.3125 95.957031 154.867188 C 100.429688 151.066406 105.574219 146.832031 111.386719 142.179688 C 138.21875 120.6875 166.0625 101.664062 194.914062 85.109375 L 200.96875 81.636719 Z M 258.710938 75.953125 L 258.710938 10.5 L 283.078125 10.5 L 283.078125 92.886719 C 309.441406 112.207031 334.433594 133.75 357.109375 155.683594 C 361.753906 160.15625 361.894531 167.550781 357.425781 172.199219 C 352.964844 176.851562 345.574219 176.992188 340.933594 172.523438 C 310.402344 142.988281 275.644531 114.257812 239.195312 91.140625 C 232.296875 86.777344 225.171875 82.511719 217.808594 78.375 C 212.257812 75.265625 206.742188 72.328125 201.273438 69.582031 C 164.195312 87.804688 128.992188 112.902344 97.878906 140.3125 C 91.289062 146.121094 85.128906 151.785156 79.402344 157.28125 C 73.511719 162.9375 67.808594 168.640625 62.316406 174.359375 L 62.320312 174.363281 L 62.320312 174.367188 C 58.003906 179.175781 50.613281 179.5625 45.820312 175.242188 C 41.023438 170.917969 40.632812 163.523438 44.953125 158.722656 L 44.953125 158.714844 L 45.226562 158.441406 C 51.019531 152.410156 57.023438 146.398438 63.226562 140.441406 C 69.683594 134.242188 76.101562 128.320312 82.4375 122.742188 C 116.398438 92.8125 155.222656 65.445312 196.347656 46.011719 L 201.445312 43.601562 L 206.398438 46.078125 L 206.410156 46.0625 C 214.167969 49.8125 221.785156 53.792969 229.230469 57.96875 C 236.570312 62.085938 244.042969 66.574219 251.621094 71.375 C 253.992188 72.882812 256.355469 74.410156 258.710938 75.953125 Z M 252.496094 143.675781 C 235.972656 131.65625 218.792969 120.363281 200.953125 109.789062 C 175.023438 125.050781 150.210938 142.171875 126.519531 161.148438 C 122.148438 164.652344 117.195312 168.753906 111.664062 173.453125 C 108.585938 176.070312 105.464844 178.777344 102.300781 181.574219 C 106.617188 201.125 111.914062 220.570312 118.1875 239.917969 C 124.539062 259.484375 131.800781 278.738281 139.96875 297.675781 C 169.761719 300.566406 199.894531 301.304688 230.359375 299.886719 C 236.214844 299.617188 242.617188 299.21875 249.5625 298.6875 C 253.847656 298.367188 257.980469 298.019531 261.960938 297.648438 C 269.929688 279.320312 277.054688 260.460938 283.34375 241.082031 C 289.636719 221.683594 295.0625 201.824219 299.605469 181.492188 C 284.730469 168.308594 269.027344 155.699219 252.496094 143.675781 Z M 252.496094 143.675781 " fill-opacity="1" fill-rule="nonzero"/></g><g clip-path="url(#id2)"><path fill="#d29e45" d="M 252.507812 198.199219 C 246.714844 168.558594 210.417969 168.066406 201.46875 195.773438 C 192.519531 168.066406 156.21875 168.558594 150.429688 198.199219 C 145.175781 225.089844 201.46875 267.515625 201.46875 267.515625 C 201.46875 267.515625 257.761719 225.089844 252.507812 198.199219 Z M 252.507812 198.199219 " fill-opacity="1" fill-rule="nonzero"/></g><g fill="#d29e45" fill-opacity="1"><g transform="translate(38.419549, 381.866474)"><g><path d="M 22.375 -41.375 C 28.425781 -41.375 33.070312 -39.726562 36.3125 -36.4375 C 39.550781 -33.15625 41.171875 -28.421875 41.171875 -22.234375 C 41.171875 -14.910156 39.285156 -9.273438 35.515625 -5.328125 C 31.742188 -1.390625 26.34375 0.578125 19.3125 0.578125 C 14.90625 0.578125 9.738281 0.382812 3.8125 0 L 4.453125 -12.078125 L 3.8125 -41.109375 Z M 21.734375 -8.890625 C 23.722656 -8.890625 25.234375 -9.679688 26.265625 -11.265625 C 27.304688 -12.859375 27.828125 -15.476562 27.828125 -19.125 C 27.828125 -22.21875 27.613281 -24.65625 27.1875 -26.4375 C 26.769531 -28.21875 26.09375 -29.5 25.15625 -30.28125 C 24.226562 -31.0625 22.9375 -31.453125 21.28125 -31.453125 C 19.675781 -31.453125 18.085938 -31.367188 16.515625 -31.203125 L 16.078125 -13.34375 L 16.203125 -9.40625 C 18.742188 -9.0625 20.585938 -8.890625 21.734375 -8.890625 Z M 21.734375 -8.890625 "/></g></g></g><g fill="#d29e45" fill-opacity="1"><g transform="translate(80.672609, 381.866474)"><g><path d="M 32.859375 -10.171875 L 33.546875 -9.28125 L 32.796875 0 L 3.8125 0 L 4.453125 -12.078125 L 3.8125 -41.109375 L 33.296875 -41.109375 L 34 -40.21875 L 33.171875 -30.953125 L 23.0625 -31.328125 L 16.515625 -31.328125 L 16.390625 -25.546875 L 22.6875 -25.546875 L 29.296875 -25.734375 L 30 -24.84375 L 29.234375 -15.5625 L 21.859375 -15.765625 L 16.140625 -15.765625 L 16.078125 -13.34375 L 16.203125 -9.78125 L 22.3125 -9.78125 Z M 32.859375 -10.171875 "/></g></g></g><g fill="#d29e45" fill-opacity="1"><g transform="translate(115.046909, 381.866474)"><g><path d="M 22.375 -41.8125 C 26.007812 -41.8125 29.4375 -41.238281 32.65625 -40.09375 L 30.5 -30 L 29.671875 -29.484375 C 28.578125 -30.078125 27.304688 -30.550781 25.859375 -30.90625 C 24.421875 -31.269531 23.085938 -31.453125 21.859375 -31.453125 C 19.273438 -31.453125 17.410156 -30.695312 16.265625 -29.1875 C 15.117188 -27.6875 14.546875 -25.179688 14.546875 -21.671875 C 14.546875 -17.554688 15.203125 -14.554688 16.515625 -12.671875 C 17.828125 -10.785156 19.882812 -9.84375 22.6875 -9.84375 C 23.875 -9.84375 25.195312 -9.957031 26.65625 -10.1875 C 28.113281 -10.425781 29.394531 -10.757812 30.5 -11.1875 L 31.515625 -10.546875 L 30.5 -0.515625 C 27.957031 0.296875 25.015625 0.703125 21.671875 0.703125 C 14.847656 0.703125 9.707031 -1.078125 6.25 -4.640625 C 2.800781 -8.203125 1.078125 -13.390625 1.078125 -20.203125 C 1.078125 -27.066406 2.929688 -32.382812 6.640625 -36.15625 C 10.347656 -39.925781 15.59375 -41.8125 22.375 -41.8125 Z M 22.375 -41.8125 "/></g></g></g><g fill="#d29e45" fill-opacity="1"><g transform="translate(147.705672, 381.866474)"><g><path d="M 21.671875 -41.875 C 27.640625 -41.875 32.253906 -40.101562 35.515625 -36.5625 C 38.785156 -33.03125 40.421875 -28.046875 40.421875 -21.609375 C 40.421875 -14.492188 38.628906 -8.984375 35.046875 -5.078125 C 31.460938 -1.179688 26.390625 0.765625 19.828125 0.765625 C 13.847656 0.765625 9.226562 -1.023438 5.96875 -4.609375 C 2.707031 -8.191406 1.078125 -13.265625 1.078125 -19.828125 C 1.078125 -26.859375 2.863281 -32.289062 6.4375 -36.125 C 10.019531 -39.957031 15.097656 -41.875 21.671875 -41.875 Z M 20.53125 -31.703125 C 18.875 -31.703125 17.617188 -31.414062 16.765625 -30.84375 C 15.921875 -30.28125 15.316406 -29.273438 14.953125 -27.828125 C 14.597656 -26.390625 14.421875 -24.296875 14.421875 -21.546875 C 14.421875 -18.023438 14.609375 -15.351562 14.984375 -13.53125 C 15.367188 -11.707031 16.015625 -10.4375 16.921875 -9.71875 C 17.835938 -9 19.1875 -8.640625 20.96875 -8.640625 C 22.625 -8.640625 23.875 -8.925781 24.71875 -9.5 C 25.5625 -10.070312 26.164062 -11.085938 26.53125 -12.546875 C 26.894531 -14.015625 27.078125 -16.125 27.078125 -18.875 C 27.078125 -22.34375 26.882812 -24.988281 26.5 -26.8125 C 26.113281 -28.632812 25.460938 -29.90625 24.546875 -30.625 C 23.640625 -31.34375 22.300781 -31.703125 20.53125 -31.703125 Z M 20.53125 -31.703125 "/></g></g></g><g fill="#d29e45" fill-opacity="1"><g transform="translate(189.196278, 381.866474)"><g><path d="M 30.890625 -16.203125 C 33.929688 -11.460938 36.976562 -7.054688 40.03125 -2.984375 L 39.84375 -1.59375 C 35.519531 -0.28125 31.265625 0.503906 27.078125 0.765625 L 25.859375 -0.25 L 25.09375 -1.84375 C 24.757812 -2.519531 24.082031 -3.945312 23.0625 -6.125 C 22.050781 -8.3125 21.164062 -10.359375 20.40625 -12.265625 L 16.140625 -12.265625 L 16.578125 0 L 3.8125 0 L 4.453125 -12.078125 L 3.8125 -41.109375 L 23.328125 -41.171875 C 27.941406 -41.171875 31.5 -40.082031 34 -37.90625 C 36.5 -35.726562 37.75 -32.582031 37.75 -28.46875 C 37.75 -26.050781 37.144531 -23.78125 35.9375 -21.65625 C 34.726562 -19.539062 33.046875 -17.722656 30.890625 -16.203125 Z M 24.34375 -27.203125 C 24.34375 -28.890625 23.90625 -30.144531 23.03125 -30.96875 C 22.164062 -31.800781 20.757812 -32.257812 18.8125 -32.34375 L 16.515625 -32.15625 L 16.265625 -21.546875 L 20.90625 -21.28125 C 22.09375 -21.832031 22.960938 -22.570312 23.515625 -23.5 C 24.066406 -24.4375 24.34375 -25.671875 24.34375 -27.203125 Z M 24.34375 -27.203125 "/></g></g></g><g fill="#d29e45" fill-opacity="1"><g transform="translate(229.28904, 381.866474)"><g/></g></g><g fill="#d29e45" fill-opacity="1"><g transform="translate(237.866734, 381.866474)"><g><path d="M 26.875 0 L 11.5 0 L 0.25 -41.109375 L 13.15625 -41.109375 L 14.296875 -34.3125 L 19.0625 -11.375 L 19.828125 -11.375 L 25.671875 -33.546875 L 26.875 -41.109375 L 39.328125 -41.109375 Z M 26.875 0 "/></g></g></g><g fill="#d29e45" fill-opacity="1"><g transform="translate(276.94287, 381.866474)"><g><path d="M 16.078125 -13.34375 L 16.578125 0 L 3.8125 0 L 4.453125 -12.078125 L 3.8125 -41.109375 L 16.78125 -41.109375 Z M 16.078125 -13.34375 "/></g></g></g><g fill="#d29e45" fill-opacity="1"><g transform="translate(297.719934, 381.866474)"><g><path d="M 32.859375 -10.171875 L 33.546875 -9.28125 L 32.796875 0 L 3.8125 0 L 4.453125 -12.078125 L 3.8125 -41.109375 L 33.296875 -41.109375 L 34 -40.21875 L 33.171875 -30.953125 L 23.0625 -31.328125 L 16.515625 -31.328125 L 16.390625 -25.546875 L 22.6875 -25.546875 L 29.296875 -25.734375 L 30 -24.84375 L 29.234375 -15.5625 L 21.859375 -15.765625 L 16.140625 -15.765625 L 16.078125 -13.34375 L 16.203125 -9.78125 L 22.3125 -9.78125 Z M 32.859375 -10.171875 "/></g></g></g><g fill="#d29e45" fill-opacity="1"><g transform="translate(332.094221, 381.866474)"><g><path d="M 32.59375 -40.21875 L 31.90625 -30.953125 L 23.515625 -31.328125 L 22.75 -31.328125 L 22.4375 -13.34375 L 22.9375 0 L 10.234375 0 L 10.859375 -12.078125 L 10.546875 -31.328125 L 9.71875 -31.328125 L 1.265625 -30.953125 L 0.515625 -31.84375 L 1.203125 -41.109375 L 31.90625 -41.109375 Z M 32.59375 -40.21875 "/></g></g></g></svg>