<svg xmlns="http://www.w3.org/2000/svg" xmlns:xlink="http://www.w3.org/1999/xlink" width="40" zoomAndPan="magnify" viewBox="0 0 30 30.000001" height="40" preserveAspectRatio="xMidYMid meet" version="1.0"><defs><clipPath id="id1"><path d="M 0.484375 0 L 29.515625 0 L 29.515625 29.03125 L 0.484375 29.03125 Z M 0.484375 0 " clip-rule="nonzero"/></clipPath></defs><g clip-path="url(#id1)"><path fill="#ffffff" d="M 0.484375 0 L 29.515625 0 L 29.515625 36.289062 L 0.484375 36.289062 Z M 0.484375 0 " fill-opacity="1" fill-rule="nonzero"/><path fill="#ffffff" d="M 0.484375 0 L 29.515625 0 L 29.515625 29.03125 L 0.484375 29.03125 Z M 0.484375 0 " fill-opacity="1" fill-rule="nonzero"/><path fill="#ffffff" d="M 0.484375 0 L 29.515625 0 L 29.515625 29.03125 L 0.484375 29.03125 Z M 0.484375 0 " fill-opacity="1" fill-rule="nonzero"/><path fill="#ffffff" d="M 0.484375 0 L 29.515625 0 L 29.515625 29.03125 L 0.484375 29.03125 Z M 0.484375 0 " fill-opacity="1" fill-rule="nonzero"/><path fill="#000000" d="M 15 0 C 6.996094 0 0.484375 6.511719 0.484375 14.515625 C 0.484375 19.03125 2.519531 23.199219 6.0625 25.949219 C 8.105469 27.554688 10.53125 28.574219 13.070312 28.898438 C 13.699219 28.988281 14.347656 29.03125 15 29.03125 C 15.652344 29.03125 16.300781 28.988281 16.914062 28.902344 C 19.46875 28.574219 21.894531 27.554688 23.929688 25.953125 C 27.480469 23.199219 29.515625 19.027344 29.515625 14.515625 C 29.515625 6.511719 23.003906 0 15 0 Z M 23.296875 23.761719 L 23.296875 22.355469 C 23.296875 20.324219 19.582031 18.664062 15 18.664062 C 10.417969 18.664062 6.703125 20.324219 6.703125 22.355469 L 6.703125 23.761719 C 4.070312 21.414062 2.558594 18.097656 2.558594 14.515625 C 2.558594 7.652344 8.136719 2.074219 15 2.074219 C 21.863281 2.074219 27.441406 7.652344 27.441406 14.515625 C 27.441406 18.097656 25.933594 21.410156 23.296875 23.761719 Z M 23.296875 23.761719 " fill-opacity="1" fill-rule="nonzero"/></g><path fill="#000000" d="M 20.183594 11.40625 C 20.183594 11.746094 20.152344 12.082031 20.085938 12.417969 C 20.019531 12.75 19.921875 13.074219 19.789062 13.390625 C 19.660156 13.703125 19.5 14.003906 19.3125 14.285156 C 19.121094 14.570312 18.90625 14.832031 18.664062 15.070312 C 18.425781 15.3125 18.164062 15.527344 17.878906 15.714844 C 17.597656 15.90625 17.296875 16.066406 16.984375 16.195312 C 16.667969 16.324219 16.34375 16.425781 16.011719 16.492188 C 15.675781 16.558594 15.339844 16.589844 15 16.589844 C 14.660156 16.589844 14.324219 16.558594 13.988281 16.492188 C 13.65625 16.425781 13.332031 16.324219 13.015625 16.195312 C 12.703125 16.066406 12.402344 15.90625 12.121094 15.714844 C 11.835938 15.527344 11.574219 15.3125 11.335938 15.070312 C 11.09375 14.832031 10.878906 14.570312 10.6875 14.285156 C 10.5 14.003906 10.339844 13.703125 10.210938 13.390625 C 10.078125 13.074219 9.980469 12.75 9.914062 12.417969 C 9.847656 12.082031 9.816406 11.746094 9.816406 11.40625 C 9.816406 11.066406 9.847656 10.726562 9.914062 10.394531 C 9.980469 10.058594 10.078125 9.734375 10.210938 9.421875 C 10.339844 9.105469 10.5 8.808594 10.6875 8.523438 C 10.878906 8.242188 11.09375 7.980469 11.335938 7.738281 C 11.574219 7.5 11.835938 7.285156 12.121094 7.09375 C 12.402344 6.90625 12.703125 6.746094 13.015625 6.617188 C 13.332031 6.484375 13.65625 6.386719 13.988281 6.320312 C 14.324219 6.253906 14.660156 6.222656 15 6.222656 C 15.339844 6.222656 15.675781 6.253906 16.011719 6.320312 C 16.34375 6.386719 16.667969 6.484375 16.984375 6.617188 C 17.296875 6.746094 17.597656 6.90625 17.878906 7.09375 C 18.164062 7.285156 18.425781 7.5 18.664062 7.738281 C 18.90625 7.980469 19.121094 8.242188 19.3125 8.523438 C 19.5 8.808594 19.660156 9.105469 19.789062 9.421875 C 19.921875 9.734375 20.019531 10.058594 20.085938 10.394531 C 20.152344 10.726562 20.183594 11.066406 20.183594 11.40625 Z M 20.183594 11.40625 " fill-opacity="1" fill-rule="nonzero"/></svg>